<?xml version="1.0" encoding="UTF-8"?>
<svg id="_Слой_1" data-name="Слой 1" xmlns="http://www.w3.org/2000/svg" viewBox="0 0 362.43 425.79">
  <defs>
    <style>
      .cls-1 {
        fill: #ffed00;
      }
    </style>
  </defs>
  <path class="cls-1" d="M131.98,195.1c-1.78-.14-3.15-1.65-3.12-3.44l2.17-127.4c-1.08-15.61,11.66-28.13,25.22-27.51,11.96,.55,22.63,11.2,23.02,24.85,.37,37.16,.75,74.31,1.12,111.47,.18,1.18,1.04,2.12,2.13,2.36,1.3,.28,2.71-.5,3.2-1.88,8.45-52.57,16.89-105.14,25.34-157.71,.2-1.21,.51-2.42,1.07-3.52,4.45-8.72,14.09-13.65,23.65-12,8.99,1.55,16.14,8.62,17.99,17.62,.26,1.25,.23,2.55,.08,3.83l-17.23,142.61c-.63,2.82,1.34,5.22,3.37,5.32,1.59,.08,2.54-.75,3.85-3.25,2.04-4.06,8.72-34.96,33.55-116.98,4.38-11.38,17.06-17.11,27.98-13.19,10.19,3.66,16.32,14.81,13.8,25.86-10.6,43.13-21.19,86.26-31.79,129.39-.52,2.56-.17,5.26,1.6,5.86,1.49,.5,3.63-.45,4.56-2.54,13.25-24.45,24.61-45.42,37.87-69.87,4.11-6.2,11.37-11.79,22.47-6.22,7.68,3.85,10.61,13.39,7.08,21.23-19.2,42.68-28.31,75.04-34.29,99.36-13.38,54.41-11.16,80.07-33.61,120.22-12.26,21.93-25.91,45.56-54.43,58.22-37.41,16.61-74.81,2.65-83.3,0-5.5-1.72-26.27-7.93-44.97-28.4-18.7-20.47-55.63-91.91-55.63-91.91-17.46-28.85-34.92-57.69-52.38-86.53-.57-.94-1.06-1.93-1.36-2.99-2.65-9.24,.17-19.1,7.13-24.93,8.36-7,20.72-7.46,29.89-.09,1.18,.95,2.79,2.84,3.7,4.06l79.06,107.26,44.49,65.32c1.89,3.16,6.03,4.14,9.05,2.28,3.12-1.93,4.03-6.27,1.83-9.38-6-12.78-11.99-25.56-17.99-38.34-.36-1.12-.08-2.33,.71-3.05,1.04-.94,2.82-.92,4.02,.21,14.99,19.09,29.98,38.18,44.97,57.27,3.09,2.78,7.37,3.47,10.47,1.8,4.15-2.22,5.95-8.5,2.78-13.64-11.79-16.41-23.59-32.82-35.38-49.23-.59-1.22-.53-2.63,.2-3.61,1-1.35,3.15-1.74,4.88-.65,17.2,17.2,34.39,34.39,51.59,51.59,3.21,2.14,7.28,2.18,10.09,.18,3.59-2.57,4.64-8.15,1.75-12.48-16.41-17.99-32.82-35.97-49.23-53.96-.95-1.26-.95-2.94-.09-4.02,1.06-1.34,3.3-1.57,4.82-.24,14.2,10.57,28.4,21.14,42.6,31.71,3.8,2.22,8.7,1.22,11.33-2.28,2.61-3.47,2.22-8.41-.92-11.45-36.43-33.04-59.28-52.67-69.1-59.16-1.9-1.26-7.65-4.89-7.45-9.53,.07-1.64,.87-3.1,1.96-4.35,2.43-2.77,6.12-4.09,9.8-3.99l43.09,1.16c6.56,.8,12.37-3.84,13.13-9.68,.82-6.35-4.51-12.71-11.71-12.78l-110.48-8.86Z"/>
</svg>