<?xml version="1.0" encoding="UTF-8"?>
<svg id="_Слой_1" data-name=" Слой 1" xmlns="http://www.w3.org/2000/svg" viewBox="0 0 902.27 1060">
  <defs>
    <style>
      .cls-1 {
        fill: #008ff8;
      }
    </style>
  </defs>
  <path class="cls-1" d="M328.54,485.69c-4.43-.35-7.84-4.11-7.77-8.56l5.4-317.16c-2.69-38.86,29.03-70.03,62.78-68.49,29.77,1.37,56.34,27.88,57.31,61.86,.92,92.51,1.87,184.99,2.79,277.5,.45,2.94,2.59,5.28,5.3,5.88,3.24,.7,6.75-1.24,7.97-4.68,21.04-130.87,42.05-261.74,63.08-392.61,.5-3.01,1.27-6.02,2.66-8.76,11.08-21.71,35.08-33.98,58.88-29.87,22.38,3.86,40.18,21.46,44.79,43.86,.65,3.11,.57,6.35,.2,9.53l-42.89,355.02c-1.57,7.02,3.34,13,8.39,13.24,3.96,.2,6.32-1.87,9.58-8.09,5.08-10.11,21.71-87.03,83.52-291.22,10.9-28.33,42.47-42.59,69.66-32.84,25.37,9.11,40.63,36.87,34.35,64.38-26.39,107.37-52.75,214.74-79.14,322.11-1.29,6.37-.42,13.09,3.98,14.59,3.71,1.24,9.04-1.12,11.35-6.32,32.99-60.87,61.27-113.07,94.28-173.94,10.23-15.43,28.31-29.35,55.94-15.48,19.12,9.58,26.41,33.33,17.63,52.85-47.8,106.25-70.48,186.81-85.36,247.35-33.31,135.45-27.78,199.33-83.67,299.28-30.52,54.59-64.5,113.42-135.5,144.94-93.13,41.35-186.24,6.6-207.37,0-13.69-4.28-65.4-19.74-111.95-70.7-46.55-50.96-138.49-228.81-138.49-228.81-43.47-71.82-86.93-143.62-130.4-215.41-1.42-2.34-2.64-4.8-3.39-7.44-6.6-23,.42-47.55,17.75-62.06,20.81-17.43,51.58-18.57,74.41-.22,2.94,2.36,6.95,7.07,9.21,10.11l196.82,267.02,110.76,162.61c4.71,7.87,15.01,10.31,22.53,5.68,7.77-4.8,10.03-15.61,4.56-23.35-14.94-31.82-29.85-63.63-44.79-95.45-.9-2.79-.2-5.8,1.77-7.59,2.59-2.34,7.02-2.29,10.01,.52,37.32,47.52,74.63,95.05,111.95,142.57,7.69,6.92,18.35,8.64,26.06,4.48,10.33-5.53,14.81-21.16,6.92-33.96-29.35-40.85-58.73-81.7-88.08-122.56-1.47-3.04-1.32-6.55,.5-8.99,2.49-3.36,7.84-4.33,12.15-1.62,42.82,42.82,85.61,85.61,128.43,128.43,7.99,5.33,18.12,5.43,25.12,.45,8.94-6.4,11.55-20.29,4.36-31.07-40.85-44.79-81.7-89.55-122.56-134.33-2.36-3.14-2.36-7.32-.22-10.01,2.64-3.34,8.22-3.91,12-.6,35.35,26.31,70.7,52.63,106.05,78.94,9.46,5.53,21.66,3.04,28.21-5.68,6.5-8.64,5.53-20.94-2.29-28.5-90.69-82.25-147.58-131.12-172.02-147.28-4.73-3.14-19.04-12.17-18.55-23.72,.17-4.08,2.17-7.72,4.88-10.83,6.05-6.9,15.24-10.18,24.4-9.93l107.27,2.89c16.33,1.99,30.79-9.56,32.69-24.1,2.04-15.81-11.23-31.64-29.15-31.82l-275.04-22.06h0Z"/>
</svg>