<?xml version="1.0" encoding="UTF-8"?>
<svg id="_Слой_1" data-name="Слой 1" xmlns="http://www.w3.org/2000/svg" viewBox="0 0 318.83 188.8">
  <defs>
    <style>
      .cls-1 {
        fill: #fff;
      }

      .cls-2 {
        fill: #ffed00;
      }
    </style>
  </defs>
  <path class="cls-2" d="M154.27,49.55c-.45-.04-.8-.42-.79-.87l.55-32.36c-.27-3.97,2.96-7.14,6.41-6.99,3.04,.14,5.75,2.85,5.85,6.31,.1,9.44,.19,18.87,.29,28.31,.05,.3,.26,.54,.54,.6,.33,.07,.69-.13,.81-.48,2.14-13.35,4.29-26.7,6.43-40.06,.05-.31,.13-.61,.27-.89,1.13-2.22,3.58-3.47,6.01-3.05,2.28,.39,4.1,2.19,4.57,4.48,.07,.32,.06,.65,.02,.97l-4.38,36.22c-.16,.72,.34,1.33,.86,1.35,.4,.02,.65-.19,.98-.83,.52-1.03,2.21-8.88,8.52-29.71,1.11-2.89,4.33-4.35,7.11-3.35,2.59,.93,4.15,3.76,3.51,6.57-2.69,10.95-5.38,21.91-8.07,32.86-.13,.65-.04,1.34,.41,1.49,.38,.13,.92-.12,1.16-.65,3.37-6.21,6.25-11.54,9.62-17.75,1.04-1.57,2.89-2.99,5.71-1.58,1.95,.98,2.69,3.4,1.8,5.39-4.88,10.84-7.19,19.06-8.71,25.23-3.4,13.82-2.83,20.34-8.54,30.53-3.11,5.57-6.58,11.57-13.82,14.79-9.5,4.22-19,.67-21.16,0-1.4-.44-6.67-2.01-11.42-7.21-4.75-5.2-14.13-23.34-14.13-23.34-4.43-7.33-8.87-14.65-13.3-21.98-.14-.24-.27-.49-.35-.76-.67-2.35,.04-4.85,1.81-6.33,2.12-1.78,5.26-1.89,7.59-.02,.3,.24,.71,.72,.94,1.03l20.08,27.24,11.3,16.59c.48,.8,1.53,1.05,2.3,.58,.79-.49,1.02-1.59,.47-2.38-1.52-3.25-3.05-6.49-4.57-9.74-.09-.29-.02-.59,.18-.77,.26-.24,.72-.23,1.02,.05,3.81,4.85,7.61,9.7,11.42,14.55,.79,.71,1.87,.88,2.66,.46,1.05-.56,1.51-2.16,.71-3.46-3-4.17-5.99-8.33-8.99-12.5-.15-.31-.13-.67,.05-.92,.26-.34,.8-.44,1.24-.17,4.37,4.37,8.74,8.74,13.1,13.1,.82,.54,1.85,.55,2.56,.05,.91-.65,1.18-2.07,.44-3.17-4.17-4.57-8.33-9.14-12.5-13.7-.24-.32-.24-.75-.02-1.02,.27-.34,.84-.4,1.22-.06,3.61,2.68,7.21,5.37,10.82,8.05,.96,.56,2.21,.31,2.88-.58,.66-.88,.56-2.14-.23-2.91-9.25-8.39-15.06-13.38-17.55-15.03-.48-.32-1.94-1.24-1.89-2.42,.02-.42,.22-.79,.5-1.11,.62-.7,1.55-1.04,2.49-1.01l10.94,.3c1.67,.2,3.14-.97,3.33-2.46,.21-1.61-1.14-3.23-2.98-3.25l-28.06-2.25Z"/>
  <g>
    <path class="cls-1" d="M27.56,129.18c-1.3-2.24-3.07-3.99-5.33-5.25-1.81-1.01-3.77-1.61-5.87-1.8-.38-.03-.71,.28-.71,.66v5.07c0,.33,.25,.59,.57,.64,1.64,.26,3.01,.98,4.09,2.17,1.37,1.52,2.06,3.54,2.06,6.08s-.69,4.54-2.06,6.07c-1.08,1.2-2.45,1.92-4.09,2.19-.32,.05-.57,.32-.57,.64v5.11c0,.38,.33,.7,.71,.66,2.1-.18,4.05-.79,5.86-1.8,2.24-1.25,4.01-3.01,5.33-5.26,1.31-2.26,1.96-4.79,1.96-7.61s-.64-5.34-1.95-7.58Zm-25.57,0c-1.33,2.24-1.99,4.76-1.99,7.58s.66,5.35,1.99,7.61c1.32,2.25,3.11,4.01,5.36,5.26,1.79,1,3.72,1.6,5.79,1.8,.38,.04,.71-.28,.71-.66v-5.12c0-.33-.25-.59-.57-.64-1.63-.26-2.97-.98-4.04-2.15-1.38-1.52-2.07-3.54-2.07-6.09s.69-4.6,2.07-6.1c1.06-1.15,2.4-1.87,4.04-2.13,.32-.05,.57-.32,.57-.64v-5.08c0-.39-.33-.7-.72-.67-2.06,.2-4,.8-5.78,1.8-2.25,1.26-4.04,3.01-5.36,5.25Z"/>
    <path class="cls-1" d="M52.07,150.89l-5.61-10.18c-.12-.21-.34-.34-.58-.34h-.63c-.36,0-.66,.29-.66,.66v9.55c0,.36-.29,.66-.66,.66h-5.69c-.36,0-.66-.29-.66-.66v-27.46c0-.36,.29-.66,.66-.66h11.11c2.27,0,4.2,.4,5.8,1.19,1.6,.79,2.79,1.88,3.59,3.26,.79,1.38,1.19,2.92,1.19,4.61,0,1.91-.54,3.62-1.62,5.12-.94,1.32-2.28,2.3-4.01,2.94-.39,.15-.57,.59-.36,.95l5.66,9.71c.26,.44-.06,.99-.57,.99h-6.38c-.24,0-.46-.13-.58-.34Zm-7.48-16.14c0,.36,.29,.66,.66,.66h3.69c1.28,0,2.25-.31,2.89-.94s.96-1.52,.96-2.66-.32-1.95-.96-2.58c-.64-.63-1.61-.94-2.89-.94h-3.69c-.36,0-.66,.29-.66,.66v5.82Z"/>
    <path class="cls-1" d="M89.27,136.29c-.77,1.38-1.94,2.49-3.52,3.34-1.59,.85-3.55,1.27-5.9,1.27h-3.69c-.36,0-.66,.29-.66,.66v9.01c0,.36-.29,.66-.66,.66h-5.69c-.36,0-.66-.29-.66-.66v-27.46c0-.36,.29-.66,.66-.66h10.7c2.3,0,4.24,.4,5.82,1.19,1.58,.79,2.77,1.88,3.57,3.28,.79,1.39,1.19,2.99,1.19,4.8,0,1.67-.38,3.19-1.15,4.57Zm-6.97-1.91c.66-.63,.98-1.52,.98-2.66s-.33-2.04-.98-2.66c-.66-.63-1.65-.94-2.99-.94h-3.15c-.36,0-.66,.29-.66,.66v5.9c0,.36,.29,.66,.66,.66h3.15c1.34,0,2.34-.31,2.99-.94Z"/>
    <path class="cls-1" d="M123.16,123.11v27.46c0,.36-.29,.66-.66,.66h-5.69c-.36,0-.66-.29-.66-.66v-10.53c0-.36-.29-.66-.66-.66h-9.59c-.36,0-.66,.29-.66,.66v10.53c0,.36-.29,.66-.66,.66h-5.69c-.36,0-.66-.29-.66-.66v-27.46c0-.36,.29-.66,.66-.66h5.69c.36,0,.66,.29,.66,.66v9.96c0,.36,.29,.66,.66,.66h9.59c.36,0,.66-.29,.66-.66v-9.96c0-.36,.29-.66,.66-.66h5.69c.36,0,.66,.29,.66,.66Z"/>
    <path class="cls-1" d="M149.82,146.15h-9.79c-.28,0-.53,.18-.62,.45l-1.42,4.19c-.09,.27-.34,.45-.62,.45h-5.93c-.46,0-.77-.45-.62-.88l9.93-27.46c.09-.26,.34-.43,.62-.43h7.19c.28,0,.52,.17,.62,.43l9.93,27.46c.16,.43-.16,.88-.62,.88h-6.01c-.28,0-.53-.18-.62-.45l-1.42-4.19c-.09-.27-.34-.45-.62-.45Zm-1.63-6.28l-2.64-7.81c-.2-.6-1.05-.6-1.25,0l-2.61,7.81c-.14,.43,.17,.87,.62,.87h5.26c.45,0,.77-.44,.62-.87Z"/>
    <path class="cls-1" d="M191.85,151.23h-6c-.22,0-.43-.11-.55-.3l-10.32-15.62c-.36-.54-1.21-.29-1.21,.36v14.9c0,.36-.29,.66-.66,.66h-5.69c-.36,0-.66-.29-.66-.66v-27.46c0-.36,.29-.66,.66-.66h6c.22,0,.43,.11,.55,.3l10.32,15.7c.36,.55,1.21,.29,1.21-.36v-14.97c0-.36,.29-.66,.66-.66h5.69c.36,0,.66,.29,.66,.66v27.46c0,.36-.29,.66-.66,.66Z"/>
    <path class="cls-1" d="M219.21,146.15h-9.79c-.28,0-.53,.18-.62,.45l-1.42,4.19c-.09,.27-.34,.45-.62,.45h-5.93c-.46,0-.77-.45-.62-.88l9.93-27.46c.09-.26,.34-.43,.62-.43h7.19c.28,0,.52,.17,.62,.43l9.93,27.46c.16,.43-.16,.88-.62,.88h-6.01c-.28,0-.53-.18-.62-.45l-1.42-4.19c-.09-.27-.34-.45-.62-.45Zm-1.63-6.28l-2.64-7.81c-.2-.6-1.05-.6-1.25,0l-2.61,7.81c-.14,.43,.17,.87,.62,.87h5.26c.45,0,.77-.44,.62-.87Z"/>
    <path class="cls-1" d="M255.63,131.56c-.23,0-.43-.13-.55-.32-.51-.8-1.19-1.43-2.05-1.87-.97-.51-2.11-.76-3.42-.76-2.27,0-4.09,.74-5.45,2.23-1.37,1.49-2.05,3.48-2.05,5.96,0,2.65,.72,4.72,2.15,6.21,1.43,1.49,3.41,2.23,5.92,2.23,1.72,0,3.18-.44,4.36-1.31,.95-.7,1.69-1.64,2.23-2.82,.2-.44-.11-.95-.6-.95h-7.27c-.36,0-.66-.29-.66-.66v-3.85c0-.36,.29-.66,.66-.66h13.93c.36,0,.66,.29,.66,.66v5.75c0,.07-.01,.14-.03,.21-.52,1.71-1.39,3.3-2.61,4.77-1.24,1.5-2.82,2.72-4.73,3.65-1.91,.93-4.07,1.39-6.48,1.39-2.84,0-5.38-.62-7.6-1.86-2.23-1.24-3.96-2.97-5.21-5.18-1.24-2.21-1.86-4.74-1.86-7.58s.62-5.38,1.86-7.6c1.24-2.23,2.97-3.96,5.18-5.2,2.21-1.24,4.74-1.86,7.58-1.86,3.44,0,6.35,.83,8.71,2.5,2.13,1.5,3.61,3.53,4.45,6.08,.14,.42-.19,.85-.63,.85h-6.5Z"/>
    <path class="cls-1" d="M278.58,128.73v4.5c0,.36,.29,.66,.66,.66h8.07c.36,0,.66,.29,.66,.66v4.09c0,.36-.29,.66-.66,.66h-8.07c-.36,0-.66,.29-.66,.66v5c0,.36,.29,.66,.66,.66h9.3c.36,0,.66,.29,.66,.66v4.3c0,.36-.29,.66-.66,.66h-16.31c-.36,0-.66-.29-.66-.66v-27.46c0-.36,.29-.66,.66-.66h16.31c.36,0,.66,.29,.66,.66v4.3c0,.36-.29,.66-.66,.66h-9.3c-.36,0-.66,.29-.66,.66Z"/>
    <path class="cls-1" d="M302.68,150.49c-1.67-.68-3-1.69-4-3.03-.87-1.17-1.38-2.55-1.54-4.13-.04-.38,.28-.7,.66-.7h6.2c.32,0,.58,.24,.65,.56,.17,.8,.51,1.42,1.02,1.88,.63,.56,1.45,.84,2.46,.84s1.86-.24,2.46-.72c.6-.48,.9-1.14,.9-1.99,0-.71-.24-1.3-.72-1.76-.48-.46-1.07-.85-1.76-1.15-.7-.3-1.69-.64-2.97-1.02-1.86-.57-3.38-1.15-4.55-1.72s-2.19-1.42-3.03-2.54c-.85-1.12-1.27-2.58-1.27-4.39,0-2.68,.97-4.77,2.91-6.29,1.94-1.52,4.47-2.27,7.58-2.27s5.72,.76,7.66,2.27c1.76,1.38,2.78,3.25,3.06,5.61,.04,.38-.27,.72-.66,.72h-6.33c-.31,0-.54-.23-.6-.53-.14-.68-.45-1.23-.96-1.66-.63-.53-1.43-.8-2.42-.8-.85,0-1.53,.23-2.05,.68-.52,.45-.78,1.1-.78,1.95,0,.93,.44,1.65,1.31,2.17,.87,.52,2.24,1.08,4.1,1.68,1.86,.63,3.37,1.23,4.53,1.8,1.16,.57,2.16,1.41,3.01,2.5,.85,1.09,1.27,2.5,1.27,4.22s-.42,3.13-1.25,4.47c-.83,1.34-2.04,2.4-3.63,3.2-1.58,.79-3.46,1.19-5.62,1.19s-3.99-.34-5.66-1.02Z"/>
  </g>
  <g>
    <path class="cls-1" d="M10.83,184.07v4.03c0,.38,.31,.69,.69,.69h5.99c.38,0,.69-.31,.69-.69v-4.03c0-.38-.31-.69-.69-.69h-5.99c-.38,0-.69,.31-.69,.69Zm-2.5-24.05H2.71c-.38,0-.69,.31-.69,.69v27.39c0,.38,.31,.69,.69,.69h5.64c.38,0,.69-.31,.69-.69v-4.72h-.01v-22.67c0-.38-.31-.69-.69-.69Z"/>
    <path class="cls-1" d="M33.49,160.71v27.39c0,.38-.31,.69-.69,.69h-5.63c-.38,0-.69-.31-.69-.69v-27.39c0-.38,.31-.69,.69-.69h5.63c.38,0,.69,.31,.69,.69Z"/>
    <path class="cls-1" d="M64.93,176.52c1.01,1.3,1.52,2.78,1.52,4.45,0,2.4-.84,4.31-2.52,5.72-1.68,1.41-4.02,2.11-7.03,2.11h-12.71c-.38,0-.69-.31-.69-.69v-27.39c0-.38,.31-.69,.69-.69h12.26c2.92,0,5.21,.67,6.87,2.01,1.65,1.34,2.48,3.16,2.48,5.45,0,1.69-.44,3.1-1.33,4.22-.54,.69-1.2,1.25-1.97,1.68-.48,.27-.45,.97,.05,1.21,.93,.45,1.73,1.09,2.39,1.93Zm-14.43-5.55c0,.38,.31,.69,.69,.69h3.9c1.15,0,2.03-.25,2.64-.76,.61-.51,.92-1.25,.92-2.23s-.31-1.73-.92-2.25c-.61-.52-1.5-.78-2.64-.78h-3.9c-.38,0-.69,.31-.69,.69v4.64Zm7.89,11.37c.64-.53,.96-1.3,.96-2.32s-.33-1.8-1-2.38c-.67-.57-1.59-.86-2.77-.86h-4.39c-.38,0-.69,.31-.69,.69v4.97c0,.38,.31,.69,.69,.69h4.47c1.17,0,2.08-.27,2.73-.8Z"/>
    <path class="cls-1" d="M89.9,188.44l-5.59-10.15c-.12-.22-.35-.36-.61-.36h-.58c-.38,0-.69,.31-.69,.69v9.48c0,.38-.31,.69-.69,.69h-5.63c-.38,0-.69-.31-.69-.69v-27.39c0-.38,.31-.69,.69-.69h11.07c2.27,0,4.2,.4,5.8,1.19,1.6,.79,2.79,1.88,3.59,3.26,.79,1.38,1.19,2.92,1.19,4.61,0,1.91-.54,3.62-1.62,5.12-.94,1.31-2.26,2.28-3.97,2.93-.41,.15-.6,.62-.38,1l5.61,9.62c.27,.46-.06,1.04-.6,1.04h-6.3c-.25,0-.48-.14-.61-.36Zm-7.47-16.15c0,.38,.31,.69,.69,.69h3.65c1.28,0,2.25-.31,2.89-.94s.96-1.52,.96-2.66-.32-1.95-.96-2.58c-.64-.63-1.61-.94-2.89-.94h-3.65c-.38,0-.69,.31-.69,.69v5.75Z"/>
    <path class="cls-1" d="M124.48,183.71h-9.75c-.3,0-.56,.19-.66,.47l-1.4,4.14c-.1,.28-.36,.47-.66,.47h-5.85c-.48,0-.81-.48-.65-.93l9.91-27.39c.1-.27,.36-.46,.65-.46h7.14c.29,0,.55,.18,.65,.46l9.91,27.39c.16,.45-.17,.93-.65,.93h-5.94c-.3,0-.56-.19-.66-.47l-1.4-4.14c-.1-.28-.36-.47-.66-.47Zm-1.62-6.32l-2.6-7.67c-.21-.63-1.1-.63-1.31,0l-2.57,7.67c-.15,.45,.18,.91,.66,.91h5.16c.47,0,.81-.47,.66-.91Z"/>
    <path class="cls-1" d="M156.66,188.44l-5.59-10.15c-.12-.22-.35-.36-.61-.36h-.58c-.38,0-.69,.31-.69,.69v9.48c0,.38-.31,.69-.69,.69h-5.63c-.38,0-.69-.31-.69-.69v-27.39c0-.38,.31-.69,.69-.69h11.07c2.27,0,4.2,.4,5.8,1.19,1.6,.79,2.79,1.88,3.59,3.26,.79,1.38,1.19,2.92,1.19,4.61,0,1.91-.54,3.62-1.62,5.12-.94,1.31-2.26,2.28-3.97,2.93-.41,.15-.6,.62-.38,1l5.61,9.62c.27,.46-.06,1.04-.6,1.04h-6.3c-.25,0-.48-.14-.61-.36Zm-7.47-16.15c0,.38,.31,.69,.69,.69h3.65c1.28,0,2.25-.31,2.89-.94s.96-1.52,.96-2.66-.32-1.95-.96-2.58c-.64-.63-1.61-.94-2.89-.94h-3.65c-.38,0-.69,.31-.69,.69v5.75Z"/>
    <path class="cls-1" d="M197.98,161.03l-9.36,18.1c-.05,.1-.08,.21-.08,.32v8.65c0,.38-.31,.69-.69,.69h-5.63c-.38,0-.69-.31-.69-.69v-8.65c0-.11-.03-.22-.08-.32l-9.36-18.1c-.24-.46,.1-1.01,.61-1.01h6.37c.27,0,.51,.16,.63,.4l4.76,10.29c.25,.54,1.01,.53,1.26,0l4.72-10.28c.11-.25,.36-.4,.63-.4h6.29c.52,0,.85,.55,.61,1.01Z"/>
    <path class="cls-1" d="M241.3,176.52c-.66-.85-1.46-1.49-2.39-1.94-.5-.24-.53-.94-.05-1.21,.77-.43,1.42-.99,1.97-1.67,.89-1.12,1.33-2.53,1.33-4.22,0-2.29-.82-4.11-2.48-5.45-1.65-1.34-3.93-2.02-6.86-2.02h-12.27c-.38,0-.69,.31-.69,.69v4.23c0,.38,.31,.69,.69,.69h10.92c1.14,0,2.03,.27,2.64,.79,.62,.51,.92,1.26,.92,2.25s-.3,1.73-.92,2.24c-.61,.5-1.5,.75-2.64,.75h-10.92c-.38,0-.69,.31-.69,.69v3.75c0,.38,.31,.69,.69,.69h11.4c1.17,0,2.09,.29,2.77,.85,.66,.58,1,1.37,1,2.38s-.32,1.78-.96,2.32-1.55,.8-2.72,.8h-11.48c-.38,0-.69,.31-.69,.69v4.28c0,.38,.31,.69,.69,.69h12.71c3.01,0,5.35-.71,7.03-2.12,1.68-1.41,2.53-3.31,2.53-5.72,0-1.66-.51-3.15-1.52-4.44Z"/>
    <path class="cls-1" d="M269.2,183.71h-9.75c-.3,0-.56,.19-.66,.47l-1.4,4.14c-.1,.28-.36,.47-.66,.47h-5.85c-.48,0-.81-.48-.65-.93l9.91-27.39c.1-.27,.36-.46,.65-.46h7.14c.29,0,.55,.18,.65,.46l9.91,27.39c.16,.45-.17,.93-.65,.93h-5.94c-.3,0-.56-.19-.66-.47l-1.4-4.14c-.1-.28-.36-.47-.66-.47Zm-1.62-6.32l-2.6-7.67c-.21-.63-1.1-.63-1.31,0l-2.57,7.67c-.15,.45,.18,.91,.66,.91h5.17c.47,0,.81-.47,.66-.91Z"/>
    <path class="cls-1" d="M294.61,183.38h7.8c.38,0,.69,.31,.69,.69v4.03c0,.38-.31,.69-.69,.69h-14.81c-.38,0-.69-.31-.69-.69v-27.39c0-.38,.31-.69,.69-.69h5.63c.38,0,.69,.31,.69,.69v21.98c0,.38,.31,.69,.69,.69Z"/>
    <path class="cls-1" d="M318.38,160.71v27.39c0,.38-.31,.69-.69,.69h-5.63c-.38,0-.69-.31-.69-.69v-27.39c0-.38,.31-.69,.69-.69h5.63c.38,0,.69,.31,.69,.69Z"/>
  </g>
</svg>